PathFileType	4	(X/Y/Z)	s04c0303.trc
DataRate	CameraRate	NumFrames	NumMarkers	Units	OrigDataRate	OrigDataStartFrame	OrigNumFrames
200	200	4	50	mm	200	1000	2000
Frame#	Time	racr			lacr			c7			jug			rlel			rdr			llel			ldr			s2			lic			ric			lasi			rasi			rpsi			lpsi			rgt			lgt			rth1			rth2			rth3			rth4			rlfc			rmfc			rsh1			rsh2			rsh3			rsh4			rlmal			rmmal			rcal			rtoe			rmt5			lth1			lth2			lth4			lth3			llfc			lmfc			lsh1			lsh2			lsh3			lsh4			llmal			lmmal			lcal			ltoe			lmt5			SBIKE			LBIKE			RBIKE			
		X1	Y1	Z1	X2	Y2	Z2	X3	Y3	Z3	X4	Y4	Z4	X5	Y5	Z5	X6	Y6	Z6	X7	Y7	Z7	X8	Y8	Z8	X9	Y9	Z9	X10	Y10	Z10	X11	Y11	Z11	X12	Y12	Z12	X13	Y13	Z13	X14	Y14	Z14	X15	Y15	Z15	X16	Y16	Z16	X17	Y17	Z17	X18	Y18	Z18	X19	Y19	Z19	X20	Y20	Z20	X21	Y21	Z21	X22	Y22	Z22	X23	Y23	Z23	X24	Y24	Z24	X25	Y25	Z25	X26	Y26	Z26	X27	Y27	Z27	X28	Y28	Z28	X29	Y29	Z29	X30	Y30	Z30	X31	Y31	Z31	X32	Y32	Z32	X33	Y33	Z33	X34	Y34	Z34	X35	Y35	Z35	X36	Y36	Z36	X37	Y37	Z37	X38	Y38	Z38	X39	Y39	Z39	X40	Y40	Z40	X41	Y41	Z41	X42	Y42	Z42	X43	Y43	Z43	X44	Y44	Z44	X45	Y45	Z45	X46	Y46	Z46	X47	Y47	Z47	X48	Y48	Z48	X49	Y49	Z49	X50	Y50	Z50	
1000	5.0000	834.162850	1261.502029	-83.993890	836.186878	1251.481923	-397.440230	853.024006	1334.539605	-241.964685	779.335285	1195.028142	-255.393982	584.488659	1106.640934	70.925892	693.765606	912.702136	-100.677674	600.021003	1138.489666	-549.488695	693.171245	904.256835	-483.247456	244.858162	1309.962411	-324.984359	409.778723	1239.861532	-449.593693	361.084740	1288.972005	-140.564403	423.382814	1184.076483	-401.096429	395.209566	1229.905695	-176.716805	279.168643	1348.948890	-282.021903	296.144585	1338.251561	-355.951214	310.849188	1253.961499	-122.913642	336.921644	1168.482461	-480.876804	397.381437	1115.391740	-108.612730	464.884284	1058.063868	-113.221099	495.561887	979.139351	-115.540448	491.605764	1078.947002	-130.442814	565.535062	849.339281	-137.739205	543.870571	831.964275	-249.429330	486.144718	751.666101	-114.010418	454.601735	667.244398	-126.178618	385.238444	616.223259	-132.457799	482.168648	651.007855	-147.837067	305.333395	486.578110	-135.680641	328.636422	488.310586	-220.496894	229.760353	471.599828	-173.369812	516.758808	383.940920	-163.924254	446.721907	377.520043	-107.552409	353.514076	1076.598765	-491.837788	394.990677	1000.188916	-490.448566	426.584388	1007.825824	-475.209569	393.771478	911.695993	-499.842761	391.474729	745.118824	-486.910154	406.918718	708.061066	-377.228763	312.029484	642.460032	-505.525011	270.526254	569.875400	-481.774637	194.923152	523.297355	-476.925225	293.719485	553.357006	-454.189906	89.322520	413.887541	-466.013310	97.092273	423.510340	-379.398359	25.459015	456.418976	-423.073100	187.694542	196.261332	-408.458427	119.213317	232.593273	-472.477095	-183.392986	929.437888	-285.486588	-17.563379	79.559121	-485.219751	-17.265758	78.960088	-84.625997	
1001	5.0050	834.687249	1263.555356	-84.220703	836.005730	1255.473781	-398.339484	852.852188	1337.708460	-241.664683	779.751485	1197.956963	-255.881946	586.625019	1107.328025	72.302672	693.986142	912.926267	-100.176329	600.431792	1139.436063	-549.156013	693.229623	904.454062	-483.331430	244.448863	1310.117169	-323.236608	409.815382	1242.383325	-448.723035	360.876485	1287.940360	-138.961059	423.829360	1186.236663	-400.878225	395.575023	1229.150087	-175.967681	278.503915	1349.060062	-279.607226	295.758566	1339.281450	-353.860031	310.477670	1251.554373	-121.742647	338.449283	1171.546619	-480.664105	395.697557	1111.218627	-108.668121	462.640846	1053.042570	-114.145348	492.176658	973.793906	-116.815716	489.646776	1073.733070	-130.646019	561.656095	844.136338	-140.034788	539.059716	826.722270	-251.165619	482.214790	745.413622	-115.018889	452.620691	659.868417	-126.968214	384.479612	607.380840	-132.963811	480.267856	644.267994	-148.296505	307.340991	475.740081	-135.575857	330.658918	477.546853	-220.652466	232.121100	459.952636	-173.106381	519.601777	374.158943	-164.106439	449.671322	367.296867	-107.690083	356.953603	1079.718253	-490.450114	399.726133	1004.249002	-489.747554	431.035528	1012.340237	-474.189686	400.315129	915.841003	-499.730717	399.721639	748.574084	-487.347697	415.423956	711.192069	-377.786370	319.013099	647.347335	-505.639669	276.025389	575.674134	-481.808713	199.389736	530.727317	-476.801231	298.721561	558.833374	-454.028382	91.293745	423.898876	-465.477933	99.181687	433.960971	-379.118173	28.385467	467.959757	-422.274198	183.861196	203.507012	-408.476578	116.508158	242.003768	-472.411503	-183.392234	929.515303	-285.462407	-17.541611	79.589388	-485.215697	-17.577153	79.339302	-84.579538	
1002	5.0100	835.476951	1266.010760	-84.494230	835.608840	1259.668866	-398.924515	852.674066	1340.979002	-241.770409	780.121497	1200.966964	-256.315555	589.325081	1108.151181	73.856714	694.451717	913.378771	-99.396895	601.109830	1140.586245	-548.846713	693.350723	904.598870	-483.405717	243.933982	1309.847432	-321.465922	409.907357	1244.646024	-447.920039	360.236678	1286.772901	-137.182613	424.326706	1188.243417	-400.631702	395.933155	1228.207879	-175.269281	277.726090	1348.833776	-277.422077	295.117406	1339.873273	-351.927892	310.062427	1249.008431	-120.528215	340.066486	1174.289606	-480.505793	393.967760	1106.891590	-108.804215	460.370577	1048.003297	-114.918614	488.778362	968.407603	-118.074798	487.567743	1068.535054	-130.755587	557.135101	839.014837	-141.710989	533.215640	821.368447	-252.374418	478.795701	738.870241	-116.000870	450.393899	652.714730	-127.644664	383.241176	598.851471	-133.420123	478.380116	637.452008	-148.865244	308.901914	465.404782	-135.501632	332.178875	467.010478	-220.557660	233.992793	448.705140	-172.749980	521.920188	363.975586	-164.271651	452.114305	356.914018	-107.855100	360.298646	1083.021692	-489.929075	404.093643	1008.132601	-488.949813	435.197434	1016.638809	-473.189368	406.259745	919.868485	-499.630313	407.452061	751.997726	-487.496737	423.677695	714.308766	-377.989491	326.039897	652.069308	-505.829987	281.685237	581.242423	-481.642474	204.137883	537.809497	-476.650398	303.874350	564.298112	-453.702495	93.486044	434.072706	-464.970415	101.694010	442.942738	-378.627645	31.686274	479.528167	-421.679661	180.690820	211.199171	-408.564155	114.377011	251.634736	-472.358384	-183.379571	929.490675	-285.329409	-17.510469	79.613120	-485.219340	-17.564977	79.339670	-84.572693	
1003	5.0150	836.214292	1268.605228	-85.009457	835.142449	1264.156489	-399.397068	852.839834	1344.610508	-241.993163	780.206483	1204.696504	-257.150800	592.345843	1109.088766	75.504598	695.101344	913.850099	-98.687811	601.990620	1141.800199	-548.632865	693.575782	904.785486	-483.525130	243.350396	1309.209252	-320.058583	409.980205	1246.869687	-447.069974	362.834521	1284.549438	-137.584939	424.905476	1190.103782	-400.387193	396.268208	1227.077679	-174.634287	276.864681	1348.238067	-275.347988	294.411069	1340.095263	-349.992844	309.167118	1246.281528	-119.831845	341.758496	1176.605138	-480.453189	392.171611	1102.685423	-108.974863	457.339434	1043.052916	-114.760909	485.177740	963.109221	-119.286524	485.428579	1063.307364	-131.019306	552.428412	833.917291	-143.141460	528.002606	815.905500	-254.367388	475.347479	731.892356	-116.648809	448.079149	645.359519	-128.211936	381.762148	590.526822	-133.749561	476.409295	630.492690	-149.422061	310.094186	455.165056	-135.479847	333.480824	456.506538	-220.483463	235.578286	437.922517	-172.465821	523.670642	353.192939	-164.318494	454.031164	346.329090	-108.080434	363.350644	1086.105158	-489.065371	408.145895	1011.749415	-488.201729	439.087261	1020.598904	-472.444426	411.571947	923.602651	-499.492425	414.731443	755.503761	-487.289829	431.860573	717.374106	-377.928484	333.066768	656.470268	-506.013428	287.335129	586.775068	-481.295926	209.016854	544.790077	-476.285924	309.116260	569.582609	-453.160409	95.745355	444.334985	-464.489317	104.253900	452.827425	-378.308770	34.989900	491.033619	-421.112169	178.154178	219.434521	-408.569893	112.845140	261.454163	-472.333644	-183.405515	929.550529	-285.376087	-17.497751	79.623226	-485.220703	-17.534992	79.361612	-84.556888	
